<?xml version="1.0" encoding="utf-8"?>
<!-- Generator: Adobe Illustrator 19.0.0, SVG Export Plug-In . SVG Version: 6.00 Build 0)  -->
<svg version="1.1" id="レイヤー_1" xmlns="http://www.w3.org/2000/svg" xmlns:xlink="http://www.w3.org/1999/xlink" x="0px"
	 y="0px" viewBox="0 0 1280 1280" style="enable-background:new 0 0 1280 1280;" xml:space="preserve">
<style type="text/css">
	.st0{fill:none;stroke:#000000;stroke-width:15;stroke-miterlimit:10;}
	.st1{fill:#353636;}
	.st2{fill:#FFFFFF;}
	.st3{fill:none;stroke:#353636;stroke-width:29;stroke-miterlimit:10;}
	.st4{fill:none;stroke:#353636;stroke-width:94;stroke-miterlimit:10;}
	.st5{fill:#353636;stroke:#353636;stroke-width:50;stroke-miterlimit:10;}
</style>
<line id="XMLID_3_" class="st0" x1="147.471" y1="243.676" x2="310.412" y2="243.676"/>
<line id="XMLID_5_" class="st0" x1="147.471" y1="336.324" x2="482.765" y2="336.324"/>
<line id="XMLID_6_" class="st0" x1="147.471" y1="427.5" x2="482.765" y2="427.5"/>
<line id="XMLID_7_" class="st0" x1="116.471" y1="517.765" x2="451.765" y2="517.765"/>
<g id="XMLID_19_">
	<path id="XMLID_12_" class="st1" d="M986.105,776.378l-3.142,0.033c-2.442-0.583-4.997-0.558-7.427,0.079l-196.373,2.085
		l-2.085,196.373c-0.637,2.431-0.662,4.985-0.079,7.427l-0.033,3.142l0.793-0.793c0.735,1.75,1.804,3.39,3.223,4.809
		l234.511,234.511c5.89,5.89,15.529,5.89,21.419,0l187.72-187.72c5.89-5.89,5.89-15.529,0-21.419L990.121,780.394
		c-1.419-1.419-3.059-2.488-4.809-3.223L986.105,776.378z M867.438,871.158c-12.323,12.323-32.301,12.323-44.624,0
		c-12.323-12.323-12.323-32.301,0-44.624c12.323-12.323,32.301-12.323,44.624,0C879.76,838.857,879.76,858.835,867.438,871.158z"/>
	<circle id="XMLID_13_" class="st2" cx="845.126" cy="848.846" r="31.554"/>
</g>
<rect id="XMLID_4_" x="31" y="114.603" class="st1" width="482.706" height="592.059"/>
<polyline id="XMLID_14_" class="st3" points="548.676,627.206 548.676,65.441 548.176,80.441 73.176,80.441 "/>
<polyline id="XMLID_15_" class="st3" points="590.882,583.265 590.882,21.5 590.382,36.5 115.382,36.5 "/>
<g id="XMLID_18_">
	<line id="XMLID_8_" class="st4" x1="705.368" y1="379.473" x2="1150.065" y2="379.473"/>
	<line id="XMLID_10_" class="st4" x1="927.716" y1="166.784" x2="927.716" y2="611.481"/>
</g>
<g id="XMLID_20_">
	<path id="XMLID_16_" class="st5" d="M604.026,1191.009H70.346c-6.6,0-12-5.4-12-12V879.685c0-6.6,5.4-12,12-12h533.68
		c6.6,0,12,5.4,12,12v299.324C616.026,1185.609,610.626,1191.009,604.026,1191.009z"/>
	<path id="XMLID_17_" class="st5" d="M278.715,883.869H70.346c-6.6,0-12-5.4-12-12v-55.367c0-6.6,5.4-12,12-12h208.369
		c6.6,0,12,5.4,12,12v55.367C290.715,878.469,285.315,883.869,278.715,883.869z"/>
</g>
</svg>
